<?xml version="1.0" standalone="no"?>
<!DOCTYPE svg PUBLIC "-//W3C//DTD SVG 20010904//EN"
 "http://www.w3.org/TR/2001/REC-SVG-20010904/DTD/svg10.dtd">
<svg version="1.0" xmlns="http://www.w3.org/2000/svg"
 width="340.000000pt" height="340.000000pt" viewBox="0 0 340.000000 340.000000"
 preserveAspectRatio="xMidYMid meet">
<metadata>
Created by potrace 1.14, written by Peter Selinger 2001-2017
</metadata>
<g transform="translate(0.000000,340.000000) scale(0.100000,-0.100000)"
fill="#000000" stroke="none">
<path d="M1205 3270 c-4 -6 -10 -8 -14 -6 -11 7 -52 -24 -46 -35 3 -5 0 -6 -8
-3 -17 6 -80 -53 -72 -67 4 -5 -1 -6 -9 -3 -9 3 -16 1 -16 -5 0 -6 -11 -17
-25 -23 -14 -6 -25 -15 -25 -20 0 -5 5 -6 12 -2 7 4 8 3 4 -4 -4 -6 -13 -9
-20 -6 -16 6 -29 -22 -19 -39 4 -7 -1 -6 -10 2 -13 11 -17 11 -17 1 0 -8 -3
-11 -6 -8 -9 9 -46 -31 -39 -43 4 -5 3 -8 -2 -7 -13 4 -103 -64 -97 -73 3 -5
-2 -9 -11 -9 -9 0 -13 -4 -10 -10 3 -5 2 -10 -4 -10 -16 0 -66 -51 -63 -64 2
-6 0 -8 -3 -4 -14 13 -47 -12 -40 -30 5 -13 3 -14 -6 -5 -15 15 -44 -10 -33
-28 4 -8 3 -9 -5 -5 -16 11 -44 -21 -36 -42 5 -13 3 -14 -6 -5 -9 9 -15 8 -26
-3 -8 -7 -12 -18 -9 -22 3 -5 -5 -8 -17 -8 -15 1 -22 -5 -21 -16 1 -10 -1 -17
-5 -16 -3 0 -9 -1 -13 -2 -5 -1 -14 -3 -20 -4 -7 -1 -12 -9 -12 -19 1 -9 -2
-14 -7 -12 -11 7 -120 -105 -113 -116 3 -5 2 -9 -3 -8 -22 4 -34 -3 -47 -28
-8 -16 -15 -23 -16 -18 0 10 -40 -50 -40 -61 0 -3 5 -2 12 2 7 4 8 3 4 -4 -4
-6 -13 -9 -20 -6 -12 5 -30 -28 -27 -48 1 -5 -4 -8 -10 -8 -7 0 -9 -10 -5 -27
4 -16 3 -23 -2 -16 -5 9 -15 -7 -29 -46 -16 -45 -19 -62 -10 -71 9 -9 9 -11 1
-7 -13 7 -29 -38 -19 -53 3 -4 -1 -10 -7 -12 -10 -4 -13 -88 -13 -384 0 -208
4 -388 9 -399 5 -11 10 -31 12 -45 4 -35 12 -65 26 -97 13 -31 15 -38 17 -54
0 -5 5 -8 10 -5 5 4 7 -3 4 -14 -4 -15 0 -20 13 -20 16 0 17 -2 4 -11 -11 -8
-12 -12 -2 -16 6 -2 12 -11 12 -19 0 -8 5 -14 11 -14 5 0 7 -4 4 -10 -6 -9 7
-14 27 -11 4 0 5 -6 2 -13 -7 -19 24 -66 44 -66 8 0 13 -3 10 -6 -10 -10 40
-56 53 -48 7 4 9 3 6 -3 -3 -5 2 -17 12 -25 14 -12 22 -13 31 -5 8 9 10 8 4
-6 -6 -17 3 -28 75 -89 12 -10 26 -18 31 -18 6 0 10 -7 10 -15 0 -8 10 -20 22
-26 13 -7 40 -30 62 -50 21 -21 43 -36 48 -33 4 3 7 1 6 -4 -2 -5 17 -28 41
-51 45 -42 58 -50 45 -28 -4 7 -3 9 2 4 5 -5 10 -13 10 -18 1 -5 2 -13 3 -18
0 -5 12 -12 26 -15 14 -4 24 -12 22 -19 -1 -6 7 -12 18 -12 13 0 19 -6 17 -18
-2 -10 3 -17 12 -17 9 0 25 -13 38 -30 12 -16 28 -30 35 -30 8 0 11 -5 8 -10
-3 -6 -3 -10 2 -10 4 0 21 -11 37 -25 16 -13 33 -22 39 -18 5 3 7 1 3 -5 -3
-6 0 -16 9 -24 34 -31 43 -36 49 -31 3 4 6 0 6 -8 0 -8 10 -21 21 -29 12 -8
28 -22 37 -30 11 -10 40 -15 101 -16 88 -1 127 8 115 28 -5 7 -2 8 5 3 17 -10
63 15 57 31 -3 8 1 11 10 7 12 -4 18 6 16 28 -1 4 6 6 16 5 9 0 16 5 14 12 -1
6 2 12 8 12 5 0 10 9 10 20 0 11 5 20 10 20 6 0 9 3 8 8 -1 4 4 20 10 35 7 16
10 32 7 37 -3 5 1 10 7 12 16 6 19 535 3 546 -5 4 -10 13 -11 20 -3 37 -5 43
-13 38 -4 -3 -6 5 -4 17 3 14 -2 29 -11 36 -9 8 -16 18 -16 23 0 13 -88 96
-95 90 -3 -3 -5 2 -5 11 0 10 -4 17 -10 17 -5 0 -33 22 -61 50 -28 27 -56 47
-62 43 -6 -3 -7 -1 -3 5 8 13 -28 35 -39 24 -3 -4 -6 -2 -5 3 5 21 0 36 -10
30 -5 -3 -10 1 -10 10 0 11 -5 15 -16 11 -8 -3 -12 -2 -9 4 6 9 -8 14 -28 11
-5 -1 -6 2 -4 6 8 13 -21 46 -33 38 -7 -4 -10 0 -8 11 2 13 -3 19 -14 18 -10
-1 -16 1 -14 5 5 9 -21 31 -28 24 -3 -4 -6 0 -6 8 0 8 -9 21 -21 29 -12 8 -35
27 -51 43 -17 15 -34 27 -40 27 -5 0 -7 4 -4 9 6 9 -37 42 -60 45 -7 1 -17 6
-21 11 -4 4 -2 5 6 0 9 -5 12 -3 9 6 -3 8 -12 13 -21 13 -9 -1 -14 2 -11 8 3
5 0 16 -8 25 -9 12 -10 15 0 9 18 -11 44 18 29 33 -9 9 -8 11 4 6 10 -4 28 6
48 25 18 16 38 30 43 30 6 0 8 7 4 15 -3 8 -2 14 2 14 21 -3 32 3 32 17 0 8 4
13 9 10 9 -6 26 22 23 36 -1 4 4 5 12 2 16 -6 49 23 41 37 -4 5 1 6 11 2 13
-5 15 -2 9 18 -5 18 -4 20 4 9 8 -12 14 -10 35 13 14 16 26 32 26 37 0 5 7 7
15 4 13 -5 20 6 16 28 0 4 6 5 14 2 8 -4 15 -1 15 5 0 6 5 11 11 11 11 0 39
25 39 35 0 3 -5 3 -12 -1 -7 -4 -8 -3 -4 5 4 6 12 9 17 6 5 -4 17 1 26 10 14
14 14 18 2 27 -10 7 -8 8 7 3 15 -4 24 0 28 10 3 9 11 13 18 9 8 -5 9 -2 5 9
-4 10 -2 16 6 14 7 -1 11 3 10 10 -2 7 4 10 12 7 13 -5 20 6 16 28 0 4 6 5 14
2 14 -6 20 6 16 29 -1 5 3 6 7 3 5 -3 27 11 48 32 41 38 74 99 93 167 15 58
14 434 -2 454 -9 12 -9 13 1 7 15 -9 17 65 3 92 -6 9 -12 29 -15 44 -4 15 -12
33 -19 40 -6 7 -13 22 -15 33 -4 23 -42 56 -56 48 -5 -3 -6 -1 -3 4 10 16 -39
62 -80 77 -46 15 -160 19 -168 6z"/>
<path d="M2053 3271 c-13 -3 -32 -14 -43 -23 -11 -10 -24 -18 -28 -18 -27 -1
-129 -169 -118 -196 3 -8 1 -14 -5 -14 -6 0 -9 -7 -5 -15 3 -8 1 -15 -3 -15
-5 0 -8 -108 -8 -240 0 -132 5 -240 10 -240 4 0 6 -4 2 -9 -8 -14 16 -102 26
-96 4 3 6 -3 4 -14 -4 -21 31 -68 47 -63 5 1 7 -2 4 -7 -8 -13 91 -114 104
-106 6 4 9 3 8 -2 -6 -18 108 -117 123 -107 5 3 9 2 8 -3 -3 -18 2 -33 10 -33
6 0 22 -11 37 -25 14 -13 31 -22 37 -18 5 3 7 1 3 -5 -8 -13 22 -44 35 -37 5
4 6 -1 3 -9 -3 -9 -1 -16 5 -16 5 0 29 -18 53 -40 70 -64 77 -70 90 -67 7 1
12 -7 13 -18 0 -11 5 -19 12 -18 6 2 15 -6 18 -17 5 -17 39 -37 56 -32 4 1 6
-6 5 -16 0 -9 6 -17 14 -16 10 1 15 -9 15 -32 0 -19 -4 -29 -9 -24 -12 12 -39
-17 -30 -31 4 -7 3 -9 -4 -5 -6 3 -22 -5 -36 -19 -14 -14 -22 -25 -18 -25 4 0
-10 -11 -31 -26 -21 -14 -35 -29 -32 -34 4 -6 -1 -7 -11 -3 -13 5 -16 3 -11
-10 3 -9 3 -16 -1 -15 -13 2 -42 -14 -37 -22 3 -4 -3 -7 -13 -6 -10 0 -16 -6
-16 -16 1 -10 -1 -17 -5 -16 -21 2 -33 -5 -43 -27 -6 -13 -15 -22 -19 -19 -5
3 -9 0 -9 -6 0 -6 -5 -8 -12 -4 -8 5 -9 2 -5 -9 3 -9 3 -16 -1 -16 -20 3 -32
-2 -27 -11 4 -6 3 -10 -2 -9 -26 4 -34 -2 -28 -23 5 -17 4 -19 -3 -9 -9 12
-13 12 -27 -2 -9 -9 -14 -21 -10 -26 3 -5 0 -13 -6 -17 -8 -4 -9 -3 -5 4 4 7
2 12 -3 12 -6 0 -11 -8 -11 -17 0 -9 -3 -14 -6 -10 -9 8 -52 -36 -46 -47 3 -5
0 -6 -6 -2 -13 8 -44 -22 -37 -35 4 -5 -1 -6 -9 -3 -15 6 -21 -6 -17 -29 1 -5
-3 -6 -8 -3 -13 8 -63 -42 -55 -55 3 -5 2 -9 -3 -8 -23 4 -35 -2 -29 -16 3 -8
0 -14 -6 -12 -7 1 -23 -25 -37 -58 -26 -59 -26 -63 -26 -330 0 -148 3 -280 7
-293 17 -56 33 -92 40 -92 4 0 7 -6 6 -12 -2 -7 3 -12 10 -10 8 1 11 -2 8 -7
-8 -12 63 -83 75 -75 5 3 6 -1 4 -8 -9 -22 54 -41 137 -43 68 -1 83 2 121 26
23 14 66 50 94 78 28 28 56 51 62 51 6 0 11 5 11 11 0 5 -5 7 -12 3 -7 -4 -8
-3 -4 5 4 6 11 9 16 6 10 -6 50 30 50 45 0 6 3 9 8 8 13 -4 63 35 59 46 -3 7
4 13 16 13 21 2 39 22 31 35 -3 4 2 5 10 2 11 -4 16 0 16 12 0 9 3 15 6 11 8
-7 34 17 34 32 0 6 3 10 8 9 12 -4 52 26 52 39 0 6 9 15 20 18 11 3 20 11 20
16 0 5 8 13 18 16 9 4 34 24 54 45 20 21 42 38 48 38 7 0 10 7 6 15 -3 8 -2
14 2 13 14 -3 42 14 36 23 -3 5 2 9 11 9 11 0 15 5 11 16 -4 10 -2 13 6 8 6
-4 17 2 25 12 8 10 17 19 21 19 4 0 6 6 6 13 -1 7 0 11 3 8 11 -10 45 16 39
30 -3 7 -2 13 2 13 21 -3 33 4 46 29 8 15 15 23 16 18 0 -6 9 0 21 12 11 12
17 27 14 32 -4 6 -1 9 7 8 7 -2 12 5 12 14 -1 10 3 16 10 15 6 -1 10 6 10 15
-1 11 4 14 14 10 11 -4 14 -1 9 12 -4 9 -3 15 1 12 8 -5 38 62 34 77 -1 4 2 7
8 7 5 0 10 7 10 16 0 9 -5 12 -12 8 -7 -4 -8 -3 -4 5 4 6 12 9 17 6 5 -4 9 3
9 14 0 32 1 35 12 49 6 7 8 15 5 19 -4 3 -3 11 2 17 20 24 24 80 28 396 3 329
-5 458 -33 527 -8 18 -12 33 -9 33 3 0 -3 17 -14 39 -11 21 -17 41 -14 45 4 3
1 6 -5 6 -7 0 -11 3 -10 8 3 12 -25 62 -34 62 -5 0 -7 4 -3 9 3 5 -2 17 -11
25 -8 9 -12 16 -8 16 4 0 -5 11 -20 25 -14 13 -26 29 -26 35 0 7 -9 9 -22 5
-16 -4 -19 -4 -9 3 11 8 7 16 -18 43 -27 28 -34 31 -42 19 -8 -11 -9 -9 -4 8
5 17 2 22 -14 22 -11 0 -22 9 -26 20 -6 18 -17 25 -38 21 -5 -1 -6 3 -2 8 3 6
-3 18 -13 27 -11 9 -32 27 -46 40 -15 13 -31 24 -37 24 -6 0 -7 5 -4 10 6 9
-8 14 -27 11 -5 0 -8 6 -8 15 0 11 -5 14 -16 10 -11 -4 -15 -2 -11 7 3 8 -9
25 -25 38 -17 13 -48 40 -69 59 -58 53 -88 75 -99 72 -6 -1 -9 1 -9 5 3 21 -3
33 -16 33 -9 0 -18 7 -21 15 -4 8 -10 12 -15 9 -5 -3 -9 2 -9 11 0 11 -5 15
-14 12 -10 -4 -13 -1 -9 9 5 12 -7 19 -29 15 -5 0 -7 3 -5 8 3 14 -44 51 -56
44 -6 -4 -8 0 -4 10 3 10 2 17 -3 17 -5 0 -20 11 -34 25 -14 14 -30 25 -36 25
-6 0 -8 5 -4 12 5 8 2 9 -10 5 -9 -4 -15 -3 -12 2 3 5 -3 19 -14 31 -11 13
-20 20 -20 16 0 -4 -10 -1 -22 5 -25 13 -150 20 -185 10z"/>
</g>
</svg>
